<?xml version="1.0" encoding="UTF-8" standalone="no"?>
<svg
   width="72"
   height="72"
   viewBox="0 0 72 72"
   version="1.1"
   id="svg1"
   sodipodi:docname="diagonal-stripes.svg"
   inkscape:version="1.4 (e7c3feb100, 2024-10-09)"
   xmlns:inkscape="http://www.inkscape.org/namespaces/inkscape"
   xmlns:sodipodi="http://sodipodi.sourceforge.net/DTD/sodipodi-0.dtd"
   xmlns:xlink="http://www.w3.org/1999/xlink"
   xmlns="http://www.w3.org/2000/svg"
   xmlns:svg="http://www.w3.org/2000/svg"
   xmlns:rdf="http://www.w3.org/1999/02/22-rdf-syntax-ns#"
   xmlns:cc="http://creativecommons.org/ns#"
   xmlns:dc="http://purl.org/dc/elements/1.1/">
  <sodipodi:namedview
     id="namedview1"
     pagecolor="#ffffff"
     bordercolor="#000000"
     borderopacity="0.25"
     inkscape:showpageshadow="2"
     inkscape:pageopacity="0.0"
     inkscape:pagecheckerboard="0"
     inkscape:deskcolor="#d1d1d1"
     inkscape:zoom="4.3542369"
     inkscape:cx="32.956406"
     inkscape:cy="39.272094"
     inkscape:window-width="1440"
     inkscape:window-height="888"
     inkscape:window-x="0"
     inkscape:window-y="0"
     inkscape:window-maximized="1"
     inkscape:current-layer="svg1" />
  <!-- Generator: Sketch 40.1 (33804) - http://www.bohemiancoding.com/sketch -->
  <title
     id="title1">diagonal-stripes</title>
  <desc
     id="desc1">Created with Sketch.</desc>
  <defs
     id="defs1">
    <linearGradient
       id="linearGradient5"
       inkscape:collect="always">
      <stop
         style="stop-color:#9ca3af;stop-opacity:0.30000001;"
         offset="0"
         id="stop5" />
      <stop
         style="stop-color:#9ca3af;stop-opacity:0;"
         offset="1"
         id="stop6" />
    </linearGradient>
    <linearGradient
       inkscape:collect="always"
       xlink:href="#linearGradient5"
       id="linearGradient6"
       x1="18"
       y1="0"
       x2="18"
       y2="72"
       gradientUnits="userSpaceOnUse" />
  </defs>
  <g
     id="Page-1"
     stroke="none"
     stroke-width="1"
     fill="none"
     fill-rule="evenodd"
     inkscape:label="page"
     style="fill:url(#linearGradient6)">
    <path
       id="path5"
       style="fill:url(#linearGradient6);fill-opacity:1;stroke-width:0.899999"
       inkscape:label="path"
       d="M 18,0 C 12,6 6,12 0,18 0,24 0,30 0,36 12,24 24,12 36,0 30,0 24,0 18,0 Z M 54,0 C 36,18 18,36 0,54 0,60 0,66 0,72 24,48 48,24 72,0 66,0 60,0 54,0 Z M 72,18 C 54,36 36,54 18,72 c 6,0 12,0 18,0 12,-12 24,-24 36,-36 0,-6 0,-12 0,-18 z m 0,36 c -6,6 -12,12 -18,18 6,0 12,0 18,0 0,-6 0,-12 0,-18 z" />
  </g>
  <metadata
     id="metadata1">
    <rdf:RDF>
      <cc:Work
         rdf:about="">
        <dc:title>diagonal-stripes</dc:title>
      </cc:Work>
    </rdf:RDF>
  </metadata>
</svg>
