<?xml version="1.0" encoding="UTF-8" standalone="no"?>
<!-- Created with Inkscape (http://www.inkscape.org/) -->

<svg
   version="1.1"
   id="svg1"
   width="294.44864"
   height="180"
   viewBox="0 0 294.44864 180"
   xmlns="http://www.w3.org/2000/svg"
   xmlns:svg="http://www.w3.org/2000/svg">
  <defs
     id="defs1" />
  <g
     id="layer2"
     transform="translate(0,5)">
    <rect
       style="display:inline;fill:none;stroke-width:10.9331;stroke-linecap:round;stroke-linejoin:round"
       id="rect6"
       width="294.44864"
       height="180"
       x="0"
       y="-5" />
    <path
       id="path3"
       style="font-variation-settings:'wdth' 85;display:inline;fill:#000000;fill-opacity:1;stroke-width:0;stroke-linecap:square"
       d="m 207.62109,36.697266 c -4.6835,-0.01564 -9.23879,1.645453 -13.16546,4.098924 -39.97117,23.086956 -79.95022,46.161368 -119.915788,69.25733 -4.473056,2.73405 -6.59738,8.68154 -4.879686,13.63203 0.900206,2.88399 3.042033,5.23997 5.640625,6.72265 40.502729,23.36903 80.985639,46.76848 121.500459,70.11715 7.04579,3.85445 16.10418,3.67051 22.9697,-0.50819 10.56116,-6.0366 21.07347,-12.15876 31.61669,-18.22691 30.02989,-17.3444 60.07612,-34.66085 90.0829,-52.04301 4.35745,-2.85066 6.26965,-8.7833 4.50799,-13.66326 -1.04939,-3.07413 -3.49806,-5.48104 -6.34766,-6.94531 C 329.85442,103.5422 320.11495,97.876974 310.35227,92.254822 279.83409,74.639697 249.32485,57.011708 218.79203,39.420873 215.3686,37.612372 211.49375,36.659742 207.62109,36.697266 Z"
       transform="translate(-60.621778,-34.999999)" />
    <path
       style="font-variation-settings:'wdth' 85;display:inline;fill:#ffffff;fill-opacity:1;stroke-width:0;stroke-linecap:square"
       d="M 77.942286,115 199.18585,44.999999 a 17.320503,17.320503 7.1619727e-7 0 1 17.3205,0 L 337.74991,115 a 5.7735021,5.7735021 90 0 1 0,10 l -121.24355,70 a 17.320513,17.320513 180 0 1 -17.32052,0 L 77.942286,125 a 5.7735026,5.7735026 90 0 1 0,-10 z"
       id="path17"
       transform="translate(-60.621778,-34.999999)" />
    <path
       id="path8"
       style="font-variation-settings:'wdth' 85;display:inline;fill:#000000;fill-opacity:1;stroke-width:0;stroke-linecap:square"
       d="m 205.88672,48.861328 c -2.94505,0.512085 -5.35626,2.392461 -7.93165,3.775784 C 159.06315,75.091408 120.17122,97.545704 81.279297,120 c 40.279423,23.25085 80.551413,46.51549 120.835483,69.75772 3.31692,1.93487 7.61964,2.07467 11.00373,0.22857 4.75273,-2.64716 9.43166,-5.43112 14.15587,-8.13113 C 262.98696,161.23677 298.69953,140.61839 334.41211,120 294.13663,96.75169 253.86844,73.48985 213.58839,50.249996 c -2.32232,-1.334662 -5.0584,-1.839106 -7.70167,-1.388668 z"
       transform="translate(-60.621778,-34.999999)" />
    <path
       style="font-variation-settings:'wdth' 85;display:inline;fill:#ffffff;fill-opacity:1;stroke:none;stroke-width:0;stroke-linecap:butt;stroke-dasharray:none;stroke-opacity:1"
       d="m 216.50635,54.999999 -60.62178,35 L 259.80762,150 320.4294,115 Z"
       id="path12"
       transform="translate(-60.621778,-34.999999)" />
    <path
       style="font-variation-settings:'wdth' 85;display:inline;fill:#ffffff;fill-opacity:1;stroke:none;stroke-width:0;stroke-linecap:butt;stroke-dasharray:none;stroke-opacity:1"
       d="m 103.92305,140 51.96152,-30 69.28203,40 -51.96152,30 z"
       id="path13"
       transform="translate(-60.621778,-34.999999)" />
    <path
       style="font-variation-settings:'wdth' 85;display:inline;fill:#000000;fill-opacity:1;stroke:none;stroke-width:0;stroke-linecap:butt;stroke-dasharray:none;stroke-opacity:1"
       d="m 155.88457,120 17.32051,10 -34.64102,20 -17.3205,-10 z"
       id="path14"
       transform="translate(-60.621778,-34.999999)" />
    <path
       d="m 182.21267,84.799464 25.32083,-14.618984 10.60743,6.124203 c 1.77812,1.026601 2.91391,2.070051 3.40737,3.130352 0.53706,1.058732 0.48831,2.113476 -0.14623,3.164232 -0.6114,1.037388 -1.73912,2.03068 -3.38318,2.979878 -1.34304,0.775401 -2.78218,1.334888 -4.31742,1.678461 -1.51481,0.355374 -3.04739,0.47321 -4.59775,0.353511 -1.55036,-0.1197 -3.02109,-0.474174 -4.41219,-1.063423 l 1.20965,-0.34439 -4.83427,9.481665 -5.85554,-3.380701 4.27479,-7.919652 -3.67888,-2.124001 4.27224,-2.466577 5.11977,2.955901 c 0.77665,0.4484 1.54645,0.759156 2.3094,0.932266 0.78611,0.159741 1.53199,0.189306 2.23765,0.0887 0.74925,-0.10218 1.44805,-0.340435 2.09642,-0.714767 l 1.07674,-0.621658 c 0.64836,-0.374331 1.05081,-0.783687 1.20735,-1.228067 0.17698,-0.432579 0.11556,-0.869114 -0.18428,-1.309604 -0.29983,-0.44049 -0.81764,-0.873135 -1.55342,-1.297935 l -5.51831,-3.186002 1.80029,-0.0836 -21.43066,12.372995 z m 22.65137,13.077779 25.32083,-14.618984 5.0278,2.902801 -25.32083,14.61898 z m 10.11692,5.841007 25.32083,-14.618989 5.0278,2.902802 -25.32084,14.618987 z m 19.33465,11.56393 c -2.41171,-1.3924 -3.90387,-2.8555 -4.47648,-4.38931 -0.57261,-1.5338 -0.30671,-3.09152 0.79769,-4.67314 1.12756,-1.595 3.02279,-3.16121 5.6857,-4.69864 l 0.1042,-0.0602 c 2.13033,-1.22995 4.24985,-2.158654 6.35855,-2.786113 2.1523,-0.629029 4.24269,-0.986314 6.27117,-1.071856 2.02848,-0.08554 3.99505,0.100659 5.89971,0.558604 1.90466,0.457944 3.68473,1.164817 5.34023,2.120615 1.88031,1.0856 3.17554,2.26121 3.88566,3.52682 0.73057,1.2774 0.85218,2.56419 0.36483,3.86036 -0.44375,1.2946 -1.48695,2.51049 -3.12959,3.64768 l -5.15043,-2.97361 c 0.71641,-0.60242 1.13039,-1.21902 1.24192,-1.84982 0.13469,-0.64416 0.005,-1.25374 -0.38878,-1.82874 -0.37344,-0.5632 -0.9587,-1.07489 -1.75579,-1.53509 -1.26717,-0.7316 -2.58603,-1.18556 -3.95658,-1.36187 -1.34739,-0.18969 -2.68858,-0.13515 -4.02358,0.16361 -1.31184,0.28539 -2.55823,0.76899 -3.73917,1.45081 l -3.95964,2.2861 c -0.97254,0.5615 -1.71825,1.13363 -2.23714,1.71641 -0.47528,0.58121 -0.73396,1.16715 -0.77603,1.75784 -0.0189,0.57732 0.18015,1.14679 0.59718,1.70842 0.44019,0.54826 1.0997,1.07609 1.97855,1.58349 0.81753,0.472 1.73583,0.81502 2.75491,1.02905 1.01908,0.21404 2.06468,0.28296 3.13681,0.20676 1.11573,-0.0778 2.18508,-0.32935 3.20807,-0.75477 l 5.15042,2.9736 c -1.48881,0.71797 -3.06488,1.23851 -4.72819,1.56162 -1.66331,0.32311 -3.34983,0.45902 -5.05956,0.40774 -1.68658,-0.0647 -3.34255,-0.31218 -4.96793,-0.74257 -1.58178,-0.43196 -3.05735,-1.04324 -4.42671,-1.83384 z m 24.03535,13.87682 c -2.41171,-1.3924 -3.90387,-2.85551 -4.47648,-4.38931 -0.57261,-1.53381 -0.30671,-3.09152 0.79769,-4.67315 1.12755,-1.59499 3.02279,-3.16121 5.6857,-4.69864 l 0.1042,-0.0602 c 2.13033,-1.22995 4.24985,-2.15865 6.35855,-2.78611 2.1523,-0.62903 4.24269,-0.98631 6.27117,-1.07185 2.02847,-0.0856 3.99504,0.10065 5.8997,0.5586 1.90466,0.45794 3.68474,1.16482 5.34024,2.12062 1.88031,1.0856 3.17553,2.2612 3.88566,3.52681 0.73057,1.27741 0.85218,2.5642 0.36483,3.86037 -0.44375,1.2946 -1.48695,2.51049 -3.1296,3.64767 l -5.15042,-2.9736 c 0.71641,-0.60242 1.13038,-1.21903 1.24192,-1.84982 0.13468,-0.64417 0.005,-1.25375 -0.38878,-1.82874 -0.37344,-0.5632 -0.9587,-1.0749 -1.75579,-1.5351 -1.26717,-0.7316 -2.58603,-1.18556 -3.95658,-1.36187 -1.34739,-0.18968 -2.68859,-0.13514 -4.02358,0.16361 -1.31184,0.2854 -2.55823,0.769 -3.73918,1.45082 l -3.95963,2.28609 c -0.97254,0.5615 -1.71826,1.13364 -2.23714,1.71641 -0.47529,0.58121 -0.73396,1.16716 -0.77603,1.75785 -0.0189,0.57731 0.18015,1.14679 0.59718,1.70841 0.44019,0.54826 1.0997,1.07609 1.97855,1.58349 0.81752,0.472 1.73583,0.81502 2.75491,1.02906 1.01908,0.21403 2.06468,0.28295 3.13681,0.20676 1.11572,-0.0778 2.18508,-0.32936 3.20806,-0.75478 l 5.15043,2.9736 c -1.48882,0.71797 -3.06488,1.23851 -4.72819,1.56162 -1.66331,0.32312 -3.34983,0.45903 -5.05956,0.40774 -1.68658,-0.0647 -3.34256,-0.31217 -4.96793,-0.74256 -1.58178,-0.43196 -3.05735,-1.04324 -4.42671,-1.83384 z"
       id="text1"
       style="font-weight:bold;font-size:64px;line-height:1;font-family:'Hubot Sans';-inkscape-font-specification:'Hubot Sans Bold';letter-spacing:0px;word-spacing:0px;display:inline;stroke-width:0"
       aria-label="RIICC"
       transform="translate(-60.621778,-34.999999)" />
  </g>
</svg>
