<?xml version="1.0" encoding="UTF-8" standalone="no"?>
<!-- Created with Inkscape (http://www.inkscape.org/) -->

<svg
   version="1.1"
   id="svg1"
   width="294.44864"
   height="180"
   viewBox="0 0 294.44864 180"
   xmlns="http://www.w3.org/2000/svg"
   xmlns:svg="http://www.w3.org/2000/svg">
  <defs
     id="defs1" />
  <g
     id="layer3"
     transform="translate(0,-75)">
    <rect
       style="display:inline;fill:none;stroke-width:10.9331;stroke-linecap:round;stroke-linejoin:round"
       id="rect5"
       width="294.44864"
       height="180"
       x="0"
       y="75" />
    <path
       id="path2"
       style="font-variation-settings:'wdth' 85;display:inline;fill:#000000;fill-opacity:1;stroke-width:0;stroke-linecap:square"
       d="m 205.17188,134.01953 c -19.96098,0.3235 -40.01255,3.64344 -58.60736,11.05071 -12.22541,4.87779 -23.90681,11.61069 -33.25604,20.97463 -6.76428,6.812 -12.19094,15.23332 -14.326058,24.67779 -2.043106,8.69143 -1.055101,18.00293 2.551458,26.15277 3.73762,8.6052 9.95271,15.95468 17.14971,21.88824 3.22955,2.9384 8.08198,3.72053 12.17202,2.33108 2.22403,-0.69892 4.0709,-2.17792 6.11766,-3.24644 13.35042,-7.71665 26.72401,-15.39836 40.0424,-23.16653 3.08176,-2.16163 4.4494,-6.26765 3.58554,-9.88764 -0.3613,-1.84482 -1.70626,-3.50156 -1.34766,-5.46552 0.46112,-3.13546 2.93963,-5.48807 5.43478,-7.20101 5.76282,-3.89697 12.75684,-5.50055 19.61147,-5.99286 8.08091,-0.5226 16.41612,0.62796 23.7334,4.21877 3.11505,1.60619 6.18866,3.76866 7.82545,6.95871 0.882,1.8661 0.82282,4.14612 -0.29826,5.90128 -1.91424,3.32179 -5.33888,5.41041 -8.72204,6.99713 -7.32131,3.30436 -15.54622,4.2073 -23.49863,3.58537 -2.45614,-0.18847 -4.87177,-0.73944 -7.3241,-0.92687 -3.74345,-0.16335 -7.46421,1.03403 -10.55026,3.12489 -13.19726,7.6336 -26.433,15.20328 -39.58337,22.91493 -3.02087,2.02311 -5.03178,5.78965 -4.29405,9.45098 0.65436,3.44026 3.52711,6.05271 6.72011,7.22229 18.14065,6.89048 37.55689,10.07785 56.92047,10.38847 20.18706,0.28252 40.51813,-2.59264 59.56862,-9.38687 12.62587,-4.56403 24.77581,-10.93878 34.79841,-19.96688 7.29895,-6.59777 13.40513,-14.8305 16.308,-24.31866 2.69018,-8.66337 2.46298,-18.19973 -0.70911,-26.70468 -3.38929,-9.36361 -9.83305,-17.33611 -17.34284,-23.74871 -10.73352,-9.09716 -23.59944,-15.36291 -36.8989,-19.74665 -17.95074,-5.87714 -36.9279,-8.3072 -55.78082,-8.07872 z"
       transform="translate(-60.621778,-34.999999)" />
    <path
       id="path4"
       style="font-variation-settings:'wdth' 85;display:inline;fill:#ffffff;fill-opacity:1;stroke-width:0;stroke-linecap:square"
       d="m 207.8457,140 c -57.39465,3.8e-4 -103.92187,26.86318 -103.92187,60 0.0257,12.39346 6.69665,24.45078 19.02553,34.53279 1.79423,1.46723 4.94752,1.62719 6.95497,0.46811 l 43.30044,-25.00144 c 1.71635,-0.99101 2.05298,-3.04219 1.21115,-4.8317 -0.79044,-1.68026 -1.19957,-3.41742 -1.21084,-5.16776 0,-11.04561 15.50907,-19.99987 34.64062,-20 19.13155,1.2e-4 34.64063,8.95439 34.64063,20 0,11.04561 -15.50908,19.99988 -34.64063,20 -3.64816,-0.008 -7.26321,-0.34852 -10.71324,-1.00506 -1.94649,-0.37041 -4.89096,0.0135 -6.60723,1.00444 l -40.53731,23.40601 c -3.53356,2.04026 -3.39304,5.08501 0.41528,6.548 16.96699,6.51793 36.93917,10.03237 57.4425,10.04661 57.39542,2.5e-4 103.92383,-26.86274 103.92383,-60 0,-33.13726 -46.52841,-60.00025 -103.92383,-60 z"
       transform="translate(-60.621778,-34.999999)" />
  </g>
</svg>
