<?xml version="1.0" encoding="UTF-8" standalone="no"?>
<!-- Created with Inkscape (http://www.inkscape.org/) -->

<svg
   version="1.1"
   id="svg1"
   width="294.44864"
   height="180"
   viewBox="0 0 294.44864 180"
   xmlns="http://www.w3.org/2000/svg"
   xmlns:svg="http://www.w3.org/2000/svg">
  <defs
     id="defs1" />
  <g
     id="layer6"
     transform="translate(0,-315)">
    <rect
       style="fill:none;stroke-width:10.9331;stroke-linecap:round;stroke-linejoin:round"
       id="rect2"
       width="294.44864"
       height="180"
       x="5.3290705e-15"
       y="315" />
    <path
       id="path5"
       style="font-variation-settings:'wdth' 85;display:inline;fill:#000000;fill-opacity:1;stroke-width:0;stroke-linecap:square"
       d="m 145.5208,321.75 c -2.29852,0.19627 -4.57838,0.66918 -6.72236,1.53168 -2.89362,1.10639 -5.46576,2.88634 -8.17102,4.373 -38.878171,22.45259 -77.768511,44.88669 -116.639076,67.35084 -1.054013,0.67116 -1.987756,1.48139 -2.800808,2.43031 -0.852722,1.05266 -1.582204,2.22991 -2.016891,3.52274 -0.432675,1.04669 -0.615577,2.20122 -0.710395,3.32229 -0.075913,1.27613 0.071772,2.53116 0.371523,3.77147 0.391199,1.33916 0.963486,2.63233 1.79254,3.76408 0.592833,0.87847 1.369682,1.65356 2.179009,2.3321 2.191949,1.60415 4.65475,2.78757 6.97227,4.19679 38.699767,22.33587 77.387547,44.6942 116.094818,67.01603 2.03143,1.0996 4.19853,1.96163 6.46761,2.4172 1.96016,0.45864 3.98528,0.56323 5.99372,0.51249 2.46663,-0.15765 4.93024,-0.61593 7.23105,-1.53975 2.89993,-1.08602 5.46748,-2.87208 8.17104,-4.35595 38.88075,-22.45359 77.77243,-44.88994 116.64634,-67.3543 3.92712,-2.32857 6.18877,-7.0962 5.52898,-11.61121 -0.47689,-3.81227 -2.97326,-7.24098 -6.38715,-8.97512 -40.31555,-23.26949 -80.62029,-46.55912 -120.94261,-69.81602 -1.99969,-1.08306 -4.13174,-1.93575 -6.3642,-2.39128 -2.0244,-0.49245 -4.12034,-0.58846 -6.19713,-0.53841 -0.16719,-0.01 -0.33156,0.0252 -0.49726,0.041 z" />
    <path
       style="font-variation-settings:'wdth' 85;display:inline;fill:#ffffff;fill-opacity:1;stroke-width:0;stroke-linecap:square"
       d="m 204.83858,42.943358 a 17.320503,17.320503 0 0 0 -5.65235,2.056641 L 77.942093,115 a 5.7735026,5.7735026 0 0 0 0,10 l 121.244137,70 a 17.320513,17.320513 0 0 0 17.32032,0 l 121.24414,-70 a 5.7735021,5.7735021 0 0 0 0,-10 L 216.50655,44.999999 a 17.320503,17.320503 0 0 0 -11.66797,-2.056641 z"
       transform="translate(-60.621781,285)"
       id="path6" />
    <path
       id="path16"
       style="font-variation-settings:'wdth' 85;display:inline;fill:#000000;fill-opacity:1;stroke-width:0;stroke-linecap:square"
       d="m 205.88477,368.86133 c -2.97649,0.52311 -5.41101,2.42933 -8.0163,3.82578 C 159.00541,395.12474 120.14235,417.56237 81.279294,440 c 40.279426,23.25085 80.551416,46.51549 120.835486,69.75772 3.31692,1.93487 7.61964,2.07467 11.00373,0.22857 4.75273,-2.64716 9.43166,-5.43112 14.15587,-8.13113 35.71258,-20.61839 71.42515,-41.23677 107.13773,-61.85516 -40.27547,-23.24834 -80.5437,-46.51008 -120.82369,-69.75006 -2.32275,-1.33343 -5.06035,-1.8395 -7.70365,-1.38861 z"
       transform="translate(-60.621778,-34.999999)" />
    <path
       style="font-variation-settings:'wdth' 85;display:inline;fill:#ffffff;fill-opacity:1;stroke-width:0;stroke-linecap:square"
       d="m 173.20577,130 17.32031,10 -43.30176,25 -17.32051,-10 z"
       transform="translate(-60.621781,285)"
       id="path15" />
    <path
       style="font-variation-settings:'wdth' 85;display:inline;fill:#ffffff;fill-opacity:1;stroke-width:0;stroke-linecap:square"
       d="m 207.84639,105 a 25.980762,15 0 0 1 25.98047,15 25.980762,15 0 0 1 -25.98047,15 25.980762,15 0 0 1 -25.98047,-15 25.980762,15 0 0 1 25.98047,-15 z"
       transform="translate(-60.621781,285)"
       id="path11" />
  </g>
</svg>
