<?xml version="1.0" encoding="UTF-8" standalone="no"?>
<svg
   width="52"
   height="26"
   viewBox="0 0 52 26"
   version="1.1"
   id="svg2"
   sodipodi:docname="wiggle.svg"
   inkscape:version="1.4.2 (ebf0e940d0, 2025-05-08)"
   xmlns:inkscape="http://www.inkscape.org/namespaces/inkscape"
   xmlns:sodipodi="http://sodipodi.sourceforge.net/DTD/sodipodi-0.dtd"
   xmlns="http://www.w3.org/2000/svg"
   xmlns:svg="http://www.w3.org/2000/svg">
  <defs
     id="defs2" />
  <sodipodi:namedview
     id="namedview2"
     pagecolor="#ffffff"
     bordercolor="#000000"
     borderopacity="0.25"
     inkscape:showpageshadow="2"
     inkscape:pageopacity="0.0"
     inkscape:pagecheckerboard="0"
     inkscape:deskcolor="#d1d1d1"
     showgrid="false"
     inkscape:zoom="12.096154"
     inkscape:cx="26"
     inkscape:cy="13.020668"
     inkscape:window-width="1440"
     inkscape:window-height="891"
     inkscape:window-x="0"
     inkscape:window-y="0"
     inkscape:window-maximized="1"
     inkscape:current-layer="g2" />
  <g
     fill="none"
     fill-rule="evenodd"
     id="g2"
     style="stroke-width:1.0015748;stroke-dasharray:none">
    <g
       fill="#000"
       id="g1"
       style="stroke-width:1.0015748;stroke-dasharray:none">
      <path
         style="stroke-width:0;stroke-dasharray:none;stroke:none;stroke-opacity:1;fill:#8b5cf6;fill-opacity:1"
         d="M 35.464,8.05 43.95,16.536 42.536,17.95 34.05,9.464 Z"
         id="path2" />
      <path
         style="stroke-width:0;stroke-dasharray:none;stroke:none;stroke-opacity:1;fill:#10b981;fill-opacity:1"
         d="M 10,10 C 10,7.79 8.21,6 6,6 2.686,6 0,3.314 0,0 h 2 c 0,2.21 1.79,4 4,4 3.314,0 6,2.686 6,6 0,2.21 1.79,4 4,4 3.314,0 6,2.686 6,6 0,2.21 1.79,4 4,4 v 2 c -3.314,0 -6,-2.686 -6,-6 0,-2.21 -1.79,-4 -4,-4 -3.314,0 -6,-2.686 -6,-6 z"
         id="path1" />
    </g>
  </g>
</svg>
