<?xml version="1.0" encoding="UTF-8" standalone="no"?>
<!-- Created with Inkscape (http://www.inkscape.org/) -->

<svg
   version="1.1"
   id="svg1"
   width="294.44864"
   height="180"
   viewBox="0 0 294.44864 180"
   xmlns="http://www.w3.org/2000/svg"
   xmlns:svg="http://www.w3.org/2000/svg">
  <defs
     id="defs1" />
  <g
     id="layer4"
     transform="translate(-5.58895e-6,-155)">
    <rect
       style="display:inline;fill:none;stroke-width:10.9331;stroke-linecap:round;stroke-linejoin:round"
       id="rect4"
       width="294.44864"
       height="180"
       x="5.58895e-06"
       y="155" />
    <path
       id="ellipse2"
       style="font-variation-settings:'wdth' 85;display:inline;fill:#000000;fill-opacity:1;stroke:none;stroke-width:0;stroke-linecap:butt;stroke-dasharray:none;stroke-opacity:1"
       d="m 205.0625,214.02344 c -20.16057,0.3645 -40.4044,3.77578 -59.16273,11.31467 -11.76801,4.7928 -23.02235,11.28923 -32.10995,20.26074 -6.43486,6.37867 -11.70009,14.14606 -14.205836,22.91873 -2.507445,8.49493 -2.105192,17.77719 1.017046,26.05703 3.47722,9.47239 10.06102,17.50943 17.71147,23.95664 10.60824,8.8695 23.25213,15.00283 36.32141,19.3232 13.53803,4.42521 27.68058,6.8926 41.88267,7.7868 20.18293,1.19349 40.62524,-0.73673 60.06209,-6.39996 13.52473,-3.9874 26.66773,-9.81384 37.9226,-18.40291 8.35592,-6.38761 15.64856,-14.51222 19.81123,-24.26221 3.37056,-7.97387 4.41472,-16.98887 2.47798,-25.46086 -2.13029,-9.64015 -7.62284,-18.26633 -14.54885,-25.18904 -8.73755,-8.78436 -19.60375,-15.17066 -30.95253,-19.97823 -14.33325,-6.00024 -29.64872,-9.45479 -45.07988,-11.03371 -7.02497,-0.6982 -14.08817,-0.98415 -21.14672,-0.89089 z"
       transform="translate(-60.621778,-34.999999)" />
    <ellipse
       style="font-variation-settings:'wdth' 85;display:inline;fill:#ffffff;fill-opacity:1;stroke:none;stroke-width:0;stroke-linecap:butt;stroke-dasharray:none;stroke-opacity:1"
       id="path4-1"
       cx="207.8461"
       cy="280"
       rx="103.923"
       ry="60"
       transform="translate(-60.621778,-34.999999)" />
    <path
       id="ellipse1"
       style="font-variation-settings:'wdth' 85;display:inline;fill:#000000;fill-opacity:1;stroke:none;stroke-width:0;stroke-linecap:butt;stroke-dasharray:none;stroke-opacity:1"
       d="m 206.69336,226.00781 c -3.35543,0.0318 -6.70984,0.15532 -10.05859,0.36914 -0.33571,0.0275 -1.14793,0.0801 -1.66602,0.11719 -3.8757,0.28875 -7.74134,0.70978 -11.58789,1.26563 -0.34086,0.0479 -1.15686,0.17044 -1.68076,0.25024 -2.17803,0.33918 -4.34802,0.72783 -6.51065,1.15405 -0.25764,0.0498 -1.12434,0.23054 -1.61718,0.33008 -13.30987,2.83829 -26.39761,7.32132 -38.07529,14.39906 -8.21135,5.05123 -15.87088,11.4679 -20.84416,19.83971 -3.41155,5.6941 -5.26187,12.43016 -4.55691,19.07951 0.7287,7.8138 4.73999,14.96489 9.91513,20.71993 6.82145,7.56507 15.54527,13.17348 24.69572,17.5126 5.20516,2.44506 10.5994,4.47754 16.09402,6.16989 0.25902,0.0806 1.1263,0.33642 1.61914,0.48438 20.00776,5.83504 41.14566,7.42901 61.86328,5.5039 0.33393,-0.0383 1.15634,-0.1152 1.67948,-0.17108 15.25537,-1.62593 30.39481,-5.26127 44.36521,-11.68559 9.59463,-4.45924 18.74223,-10.30881 25.78386,-18.29755 5.00426,-5.72275 8.84494,-12.78026 9.51505,-20.45533 0.58518,-6.02637 -0.88977,-12.13472 -3.76428,-17.43043 -4.13877,-7.69369 -10.66136,-13.83903 -17.78698,-18.76238 -10.13133,-6.9332 -21.647,-11.62965 -33.44824,-14.86191 -14.29149,-3.8902 -29.13582,-5.60939 -43.93394,-5.53104 z"
       transform="translate(-60.621778,-34.999999)" />
    <path
       id="path5-7"
       style="font-variation-settings:'wdth' 85;display:inline;fill:#ffffff;fill-opacity:1;stroke-width:0;stroke-linecap:square"
       d="m 207.8457,295 a 25.980764,15 0 0 0 25.98047,-15 25.980764,15 0 0 0 -25.98047,-15 25.980764,15 0 0 0 -25.98047,15 25.980764,15 0 0 0 25.98047,15 z m 4.33008,-2.5 h -8.66016 v -5 h 8.66016 z m -4.33008,-10 a 4.3301272,2.5 0 0 1 -4.33008,-2.5 4.3301272,2.5 0 0 1 4.33008,-2.5 4.3301272,2.5 0 0 1 4.33008,2.5 4.3301272,2.5 0 0 1 -4.33008,2.5 z"
       transform="translate(-60.621778,-34.999999)" />
  </g>
</svg>
