<?xml version="1.0" encoding="UTF-8" standalone="no"?>
<!-- Created with Inkscape (http://www.inkscape.org/) -->

<svg
   version="1.1"
   id="svg1"
   width="294.44864"
   height="180"
   viewBox="0 0 294.44864 180"
   xmlns="http://www.w3.org/2000/svg"
   xmlns:svg="http://www.w3.org/2000/svg">
  <defs
     id="defs1" />
  <g
     id="layer5"
     style="display:inline"
     transform="translate(-1.9754199e-4,-235)">
    <rect
       style="fill:none;stroke-width:10.9331;stroke-linecap:round;stroke-linejoin:round"
       id="rect3"
       width="294.44864"
       height="180"
       x="0.00019754199"
       y="235" />
    <path
       id="path10"
       style="font-variation-settings:'wdth' 85;display:inline;fill:#000000;fill-opacity:1;stroke-width:0;stroke-linecap:square"
       d="m 205.12071,294.01953 c -19.06158,0.30545 -38.18788,3.36942 -56.07614,10.07504 -12.11065,4.57699 -23.74696,10.85823 -33.34167,19.63895 -7.43111,6.81313 -13.57565,15.36555 -16.268544,25.17749 -2.338124,8.3099 -1.923844,17.33279 1.079924,25.41931 3.58536,9.84828 10.49401,18.16599 18.52464,24.75471 4.04966,3.36146 10.2841,3.5403 14.64442,0.66028 14.29353,-8.26362 28.60747,-16.49442 42.88826,-24.77855 3.19959,-1.95549 4.84315,-5.97274 4.13288,-9.62684 -0.22837,-1.99718 -1.70917,-3.69408 -1.48113,-5.76607 0.28016,-2.98477 2.54997,-5.30163 4.83518,-7.01349 4.89216,-3.54791 10.86464,-5.28127 16.78875,-6.09975 8.16393,-1.03307 16.65389,-0.36868 24.36275,2.61924 3.78094,1.54142 7.57728,3.6383 9.97114,7.05081 1.34412,1.85859 1.75361,4.42573 0.69174,6.51249 -1.61178,3.276 -4.78685,5.42462 -7.94144,7.05539 -6.75695,3.34236 -14.42761,4.48777 -21.91037,4.2624 -2.96526,-0.0702 -5.89895,-0.53046 -8.81797,-1.01374 -3.74168,-0.36932 -7.64101,0.4318 -10.80393,2.50753 -13.34094,7.71618 -26.70526,15.39356 -40.03161,23.13394 -2.87992,1.78499 -5.08163,4.97491 -4.92533,8.45859 0.0754,3.43553 2.46224,6.46006 5.48314,7.91758 2.72972,1.23621 5.60009,2.14224 8.43813,3.0971 17.94369,5.76315 36.8776,8.20297 55.69615,7.90779 18.99571,-0.34565 38.04752,-3.45043 55.86134,-10.166 12.40353,-4.71746 24.30755,-11.2403 34.00048,-20.40139 7.14213,-6.79672 12.99402,-15.25667 15.4914,-24.88598 2.35716,-8.8625 1.59086,-18.46917 -1.98307,-26.90143 -4.06456,-9.73132 -11.31102,-17.82041 -19.58255,-24.21649 -11.3009,-8.68779 -24.51825,-14.59292 -38.12932,-18.62724 -16.7126,-4.90676 -34.20148,-6.9811 -51.59725,-6.75167 z"
       transform="translate(-60.621778,-34.999999)" />
    <path
       id="path4-9"
       style="font-variation-settings:'wdth' 85;display:inline;fill:#ffffff;fill-opacity:1;stroke-width:0;stroke-linecap:square"
       d="m 207.8457,140 c -57.39465,3.8e-4 -103.92187,26.86318 -103.92187,60 0.0257,12.39346 6.69665,24.45078 19.02553,34.53279 1.79423,1.46723 4.94752,1.62719 6.95497,0.46811 l 43.30044,-25.00144 c 1.71635,-0.99101 2.05298,-3.04219 1.21115,-4.8317 -0.79044,-1.68026 -1.19957,-3.41742 -1.21084,-5.16776 0,-11.04561 15.50907,-19.99987 34.64062,-20 19.13155,1.2e-4 34.64063,8.95439 34.64063,20 0,11.04561 -15.50908,19.99988 -34.64063,20 -3.64816,-0.008 -7.26321,-0.34852 -10.71324,-1.00506 -1.94649,-0.37041 -4.89096,0.0135 -6.60723,1.00444 l -40.53731,23.40601 c -3.53356,2.04026 -3.39304,5.08501 0.41528,6.548 16.96699,6.51793 36.93917,10.03237 57.4425,10.04661 57.39542,2.5e-4 103.92383,-26.86274 103.92383,-60 0,-33.13726 -46.52841,-60.00025 -103.92383,-60 z"
       transform="translate(-60.622163,125)" />
  </g>
</svg>
