<?xml version="1.0" encoding="UTF-8" standalone="no"?>
<!-- Created with Inkscape (http://www.inkscape.org/) -->

<svg
   width="48.412384mm"
   height="10.438332mm"
   viewBox="0 0 48.412384 10.438332"
   version="1.1"
   id="svg1"
   inkscape:version="1.4.1 (93de688d07, 2025-03-30)"
   sodipodi:docname="wordmark-onlight.svg"
   xmlns:inkscape="http://www.inkscape.org/namespaces/inkscape"
   xmlns:sodipodi="http://sodipodi.sourceforge.net/DTD/sodipodi-0.dtd"
   xmlns:xlink="http://www.w3.org/1999/xlink"
   xmlns="http://www.w3.org/2000/svg"
   xmlns:svg="http://www.w3.org/2000/svg">
  <sodipodi:namedview
     id="namedview1"
     pagecolor="#ffffff"
     bordercolor="#000000"
     borderopacity="0.25"
     inkscape:showpageshadow="2"
     inkscape:pageopacity="0.0"
     inkscape:pagecheckerboard="0"
     inkscape:deskcolor="#d1d1d1"
     inkscape:document-units="mm"
     inkscape:zoom="2.3090909"
     inkscape:cx="70.807087"
     inkscape:cy="67.992126"
     inkscape:window-width="1440"
     inkscape:window-height="888"
     inkscape:window-x="0"
     inkscape:window-y="0"
     inkscape:window-maximized="1"
     inkscape:current-layer="layer1" />
  <defs
     id="defs1">
    <linearGradient
       id="linearGradient2"
       inkscape:collect="always">
      <stop
         style="stop-color:#059669;stop-opacity:1;"
         offset="0.24827342"
         id="stop2" />
      <stop
         style="stop-color:#4f46e5;stop-opacity:1;"
         offset="1"
         id="stop3" />
    </linearGradient>
    <linearGradient
       inkscape:collect="always"
       xlink:href="#linearGradient2"
       id="linearGradient3"
       x1="74.539542"
       y1="71.086843"
       x2="117.65177"
       y2="71.086843"
       gradientUnits="userSpaceOnUse" />
  </defs>
  <g
     inkscape:label="Layer 1"
     inkscape:groupmode="layer"
     id="layer1"
     transform="translate(-71.88946,-62.762356)">
    <path
       style="font-weight:bold;font-size:5.64444px;line-height:1.7;font-family:'Mona Sans';-inkscape-font-specification:'Mona Sans Bold';font-variant-ligatures:no-contextual;letter-spacing:0px;word-spacing:0px;stroke-width:0.2;stroke-linejoin:round"
       d="m 71.889459,62.801867 h 2.094087 q 0.637822,0 0.999066,0.287867 0.361244,0.287866 0.361244,0.841021 0,0.383822 -0.2032,0.649111 -0.197555,0.259644 -0.553155,0.3556 v 0.03387 q 0.349955,0.06209 0.508,0.259645 0.163689,0.19191 0.163689,0.541866 v 0.677333 q 0,0.152399 0.01129,0.259644 0.01129,0.1016 0.05644,0.208844 h -0.886177 q -0.06209,-0.141111 -0.06209,-0.468488 v -0.524933 q 0,-0.276578 -0.141111,-0.4064 -0.135467,-0.135467 -0.491066,-0.135467 h -0.976489 v 1.535288 h -0.880532 z m 1.890887,1.885243 q 0.338667,0 0.496711,-0.158044 0.163689,-0.163689 0.163689,-0.434622 0,-0.564444 -0.6604,-0.564444 h -1.010355 v 1.15711 z m 3.251197,2.280354 q -0.366889,0 -0.649111,-0.186266 -0.276577,-0.186267 -0.428977,-0.536222 -0.1524,-0.3556 -0.1524,-0.841022 0,-0.491066 0.1524,-0.841021 0.1524,-0.3556 0.428977,-0.541867 0.276578,-0.186266 0.649111,-0.186266 0.338666,0 0.587022,0.158044 0.253999,0.1524 0.349955,0.4064 h 0.04516 l 0.03387,-0.508 h 0.784577 v 3.02542 h -0.784577 l -0.03387,-0.513644 h -0.04516 q -0.09596,0.254 -0.349955,0.412044 -0.248356,0.1524 -0.587022,0.1524 z m 0.299155,-0.671688 q 0.321733,0 0.496711,-0.2032 0.174978,-0.208844 0.174978,-0.541866 v -0.299156 q 0,-0.333022 -0.174978,-0.536222 -0.174978,-0.208844 -0.474133,-0.208844 -0.349955,0 -0.530577,0.237067 -0.174978,0.237066 -0.174978,0.660399 0,0.423333 0.169333,0.6604 0.174978,0.231422 0.513644,0.231422 z m 2.415819,-1.744132 h -0.474133 v -0.6604 h 0.474133 v -0.321733 q 0,-0.372533 0.225778,-0.570088 0.231422,-0.197556 0.654755,-0.197556 h 0.581377 v 0.564444 h -0.366889 q -0.141111,0 -0.208844,0.06209 -0.06209,0.06209 -0.06209,0.197556 v 0.265288 h 0.942622 v -0.321733 q 0,-0.372533 0.231422,-0.570088 0.231422,-0.197556 0.654755,-0.197556 h 0.581377 v 0.564444 h -0.366888 q -0.141111,0 -0.208845,0.06209 -0.06209,0.06209 -0.06209,0.197556 v 0.265288 h 0.587022 v 0.6604 h -0.587022 v 2.36502 h -0.829732 v -2.36502 h -0.942622 v 2.36502 h -0.824088 z m 3.62938,-1.749777 h 0.829732 v 4.114797 h -0.829732 z m 2.844802,4.171242 q -0.462844,0 -0.801511,-0.191911 -0.333022,-0.191911 -0.507999,-0.536222 -0.174978,-0.349956 -0.174978,-0.818444 0,-0.485422 0.174978,-0.841022 0.180622,-0.361244 0.507999,-0.553155 0.327378,-0.197555 0.767644,-0.197555 0.688622,0 1.061155,0.412044 0.372533,0.412044 0.372533,1.095021 0,0.07338 -0.01129,0.242711 h -2.06022 q 0,0.366889 0.180622,0.564444 0.180622,0.197556 0.491066,0.197556 0.231422,0 0.378177,-0.09031 0.146756,-0.09596 0.2032,-0.259645 h 0.784577 q -0.06773,0.445911 -0.44591,0.7112 -0.372533,0.265289 -0.920044,0.265289 z m 0.575733,-1.902177 q -0.0056,-0.299155 -0.174978,-0.457199 -0.163689,-0.158045 -0.434622,-0.158045 -0.276577,0 -0.44591,0.163689 -0.163689,0.158044 -0.186267,0.451555 z m 2.528711,1.902177 q -0.603955,0 -0.965199,-0.270934 -0.3556,-0.270933 -0.366889,-0.716844 h 0.818444 q 0.01693,0.2032 0.158045,0.3048 0.141111,0.09596 0.378177,0.09596 0.225778,0 0.344311,-0.07902 0.118533,-0.08467 0.118533,-0.237067 0,-0.169333 -0.124177,-0.231422 -0.118534,-0.06773 -0.4572,-0.118533 -0.615244,-0.09031 -0.886177,-0.293511 -0.270933,-0.2032 -0.270933,-0.626533 0,-0.287866 0.158044,-0.502355 0.163689,-0.220133 0.451555,-0.338667 0.293511,-0.124177 0.671689,-0.124177 0.541866,0 0.880532,0.259644 0.338667,0.254 0.361244,0.677333 h -0.818443 q -0.01693,-0.3556 -0.445911,-0.3556 -0.197556,0 -0.316089,0.08467 -0.112889,0.07902 -0.112889,0.225777 0,0.158045 0.141111,0.231422 0.146756,0.06773 0.519289,0.118534 0.575733,0.07338 0.835377,0.282222 0.259644,0.203199 0.259644,0.637821 0,0.462844 -0.361244,0.722489 -0.361244,0.254 -0.970844,0.254 z m 3.104444,-4.171242 h 0.880533 v 4.114797 h -0.880533 z m 1.625602,1.089377 h 0.795866 l 0.03387,0.547511 h 0.03387 q 0.118533,-0.293511 0.372533,-0.445911 0.259644,-0.158044 0.592666,-0.158044 0.485422,0 0.773288,0.3048 0.293511,0.299155 0.293511,0.948266 v 1.828798 h -0.829732 v -1.648176 q 0,-0.383822 -0.135467,-0.570089 -0.135467,-0.186266 -0.434622,-0.186266 -0.310444,0 -0.491066,0.208844 -0.174978,0.208844 -0.174978,0.513644 v 1.682043 h -0.829732 z m 4.69617,3.081865 q -0.603955,0 -0.965199,-0.270934 -0.3556,-0.270933 -0.366888,-0.716844 h 0.818443 q 0.01693,0.2032 0.158045,0.3048 0.141111,0.09596 0.378177,0.09596 0.225778,0 0.344311,-0.07902 0.118533,-0.08467 0.118533,-0.237067 0,-0.169333 -0.124177,-0.231422 -0.118534,-0.06773 -0.4572,-0.118533 -0.615244,-0.09031 -0.886177,-0.293511 -0.270933,-0.2032 -0.270933,-0.626533 0,-0.287866 0.158044,-0.502355 0.163689,-0.220133 0.451555,-0.338667 0.293511,-0.124177 0.671689,-0.124177 0.541866,0 0.880532,0.259644 0.338667,0.254 0.361246,0.677333 h -0.818445 q -0.01693,-0.3556 -0.445911,-0.3556 -0.197556,0 -0.316089,0.08467 -0.112889,0.07902 -0.112889,0.225777 0,0.158045 0.141111,0.231422 0.146756,0.06773 0.519289,0.118534 0.575733,0.07338 0.835377,0.282222 0.259647,0.203199 0.259647,0.637821 0,0.462844 -0.361247,0.722489 -0.361244,0.254 -0.970844,0.254 z m 2.929471,-0.05644 q -0.43462,0 -0.6096,-0.186266 -0.16933,-0.186267 -0.16933,-0.553156 v -1.619954 h -0.54187 v -0.666044 h 0.54187 v -0.824088 l 0.82973,-0.07902 v 0.90311 h 1.94733 v 3.02542 h -0.82973 v -2.359376 h -1.1176 v 1.46191 q 0,0.129822 0.0564,0.180622 0.0564,0.04516 0.18062,0.04516 h 0.37253 v 0.671688 z m 1.58609,-3.38102 q -0.19756,0 -0.32173,-0.101599 -0.11854,-0.1016 -0.11854,-0.282222 0,-0.180623 0.12418,-0.282222 0.12418,-0.107245 0.31609,-0.107245 0.19755,0 0.32173,0.107245 0.12418,0.101599 0.12418,0.282222 0,0.180622 -0.12418,0.282222 -0.12418,0.101599 -0.32173,0.101599 z m 2.17311,3.38102 q -0.39511,0 -0.58138,-0.186266 -0.18062,-0.186267 -0.18062,-0.581378 v -1.591732 h -0.54187 v -0.666044 h 0.54187 v -0.824088 l 0.82973,-0.07902 v 0.90311 h 0.6096 v 0.666044 h -0.6096 v 1.439332 q 0,0.135467 0.0621,0.191911 0.0677,0.0508 0.19756,0.0508 h 0.34995 v 0.677333 z m 2.25778,0.0508 q -0.52494,0 -0.80151,-0.3048 -0.27658,-0.304799 -0.27658,-0.886177 v -1.885243 h 0.82973 v 1.66511 q 0,0.366889 0.13547,0.553155 0.14111,0.186267 0.44026,0.186267 0.3048,0 0.47978,-0.208845 0.18062,-0.214488 0.18062,-0.524933 v -1.670754 h 0.82974 v 3.02542 h -0.79587 l -0.0339,-0.553155 h -0.0339 q -0.10725,0.287866 -0.36689,0.445911 -0.254,0.158044 -0.58702,0.158044 z m 3.5955,-0.0508 q -0.43462,0 -0.6096,-0.186266 -0.16933,-0.186267 -0.16933,-0.553156 v -1.619954 h -0.54187 v -0.666044 h 0.54187 v -0.824088 l 0.82973,-0.07902 v 0.90311 h 1.94733 v 3.02542 h -0.82973 v -2.359376 h -1.1176 v 1.46191 q 0,0.129822 0.0564,0.180622 0.0564,0.04516 0.18063,0.04516 h 0.37253 v 0.671688 z m 1.58609,-3.38102 q -0.19756,0 -0.32174,-0.101599 -0.11853,-0.1016 -0.11853,-0.282222 0,-0.180623 0.12418,-0.282222 0.12418,-0.107245 0.31609,-0.107245 0.19755,0 0.32173,0.107245 0.12418,0.101599 0.12418,0.282222 0,0.180622 -0.12418,0.282222 -0.12418,0.101599 -0.32173,0.101599 z m 2.47227,3.43182 q -0.45156,0 -0.79587,-0.186266 -0.34431,-0.186267 -0.53622,-0.536222 -0.18627,-0.3556 -0.18627,-0.841022 0,-0.468488 0.18062,-0.824088 0.18063,-0.3556 0.51929,-0.547511 0.34431,-0.197555 0.81845,-0.197555 0.45155,0 0.79022,0.191911 0.34431,0.186266 0.53058,0.541866 0.19191,0.349955 0.19191,0.835377 0,0.468489 -0.18063,0.824088 -0.18062,0.349956 -0.52493,0.547511 -0.33867,0.191911 -0.80715,0.191911 z m -0.006,-0.671688 q 0.31609,0 0.49671,-0.225778 0.18062,-0.225778 0.18062,-0.666044 0,-0.440266 -0.18062,-0.666044 -0.17498,-0.225777 -0.49106,-0.225777 -0.31609,0 -0.50236,0.225777 -0.18062,0.225778 -0.18062,0.666044 0,0.440266 0.18062,0.666044 0.18062,0.225778 0.49671,0.225778 z m 2.06022,-2.404532 h 0.79587 l 0.0339,0.547511 h 0.0339 q 0.11854,-0.293511 0.37254,-0.445911 0.25964,-0.158044 0.59266,-0.158044 0.48542,0 0.77329,0.3048 0.29351,0.299155 0.29351,0.948266 v 1.828798 h -0.82973 v -1.648176 q 0,-0.383822 -0.13547,-0.570089 -0.13546,-0.186266 -0.43462,-0.186266 -0.31044,0 -0.49107,0.208844 -0.17497,0.208844 -0.17497,0.513644 v 1.682043 h -0.82974 z"
       id="text1"
       aria-label="Raffles Institution" />
    <path
       style="font-weight:900;font-size:5.64444px;line-height:1.7;font-family:'Mona Sans';-inkscape-font-specification:'Mona Sans Heavy';font-variant-ligatures:no-contextual;letter-spacing:0px;word-spacing:0px;fill:url(#linearGradient3);stroke-width:0.2;stroke-linejoin:round"
       d="m 74.539542,69.029444 h 1.145821 v 4.114797 h -1.145821 z m 1.783638,1.044222 h 1.038577 l 0.03951,0.502355 h 0.04516 q 0.107244,-0.270933 0.349955,-0.412044 0.242711,-0.146756 0.5588,-0.146756 0.485422,0 0.778932,0.3048 0.293511,0.299156 0.293511,0.942622 v 1.879598 h -1.078088 v -1.642532 q 0,-0.310444 -0.107244,-0.462844 -0.1016,-0.1524 -0.338666,-0.1524 -0.237067,0 -0.372534,0.158045 -0.129822,0.158044 -0.129822,0.361244 v 1.738487 H 76.32318 Z m 3.905954,0.863599 h -0.451556 v -0.863599 h 0.451556 v -0.2032 q 0,-0.400755 0.259644,-0.620888 0.265289,-0.220134 0.745066,-0.220134 h 0.694266 v 0.694267 h -0.400755 q -0.107244,0 -0.163689,0.04516 -0.05644,0.03951 -0.05644,0.1524 v 0.1524 h 0.575733 v 0.863599 h -0.575733 v 2.206976 h -1.078088 z m 3.465684,2.263421 q -0.474133,0 -0.829733,-0.186267 -0.3556,-0.186266 -0.553155,-0.541866 -0.191911,-0.361244 -0.191911,-0.863599 0,-0.479778 0.180622,-0.835378 0.186267,-0.361244 0.541866,-0.558799 0.3556,-0.197556 0.852311,-0.197556 0.474133,0 0.829733,0.186267 0.355599,0.186267 0.54751,0.547511 0.197556,0.355599 0.197556,0.857955 0,0.479777 -0.186267,0.841021 -0.180622,0.3556 -0.536222,0.553155 -0.355599,0.197556 -0.85231,0.197556 z m 0,-0.8636 q 0.485422,0 0.485422,-0.728132 0,-0.728133 -0.485422,-0.728133 -0.485422,0 -0.485422,0.728133 0,0.728132 0.485422,0.728132 z m 3.499551,0.8636 q -0.468489,0 -0.824088,-0.197556 -0.3556,-0.197555 -0.547511,-0.558799 -0.191911,-0.361244 -0.191911,-0.841022 0,-0.479777 0.191911,-0.835377 0.197555,-0.361244 0.5588,-0.553155 0.361244,-0.197556 0.841021,-0.197556 0.412044,0 0.739422,0.158045 0.327377,0.1524 0.507999,0.434622 0.186267,0.276577 0.191911,0.637821 h -1.049865 q -0.02822,-0.180622 -0.141111,-0.270933 -0.107245,-0.09031 -0.270934,-0.09031 -0.474133,0 -0.474133,0.722489 0,0.366888 0.124178,0.54751 0.124178,0.174978 0.344311,0.174978 0.191911,0 0.299155,-0.09596 0.107245,-0.101599 0.129822,-0.265288 h 1.044222 q -0.01129,0.366888 -0.2032,0.64911 -0.191911,0.276578 -0.524933,0.428978 -0.327377,0.1524 -0.745066,0.1524 z m 3.318934,0 q -0.474133,0 -0.829733,-0.186267 -0.3556,-0.186266 -0.553155,-0.541866 -0.191911,-0.361244 -0.191911,-0.863599 0,-0.479778 0.180622,-0.835378 0.186266,-0.361244 0.541866,-0.558799 0.3556,-0.197556 0.852311,-0.197556 0.474133,0 0.829732,0.186267 0.3556,0.186267 0.547511,0.547511 0.197555,0.355599 0.197555,0.857955 0,0.479777 -0.186266,0.841021 -0.180622,0.3556 -0.536222,0.553155 -0.3556,0.197556 -0.85231,0.197556 z m 0,-0.8636 q 0.485422,0 0.485422,-0.728132 0,-0.728133 -0.485422,-0.728133 -0.485422,0 -0.485422,0.728133 0,0.728132 0.485422,0.728132 z m 2.020709,-2.26342 h 1.044221 l 0.03387,0.502355 h 0.04516 q 0.09596,-0.270933 0.327378,-0.412044 0.237066,-0.146756 0.536222,-0.146756 0.327377,0 0.575732,0.1524 0.254,0.1524 0.372533,0.496711 h 0.04516 q 0.09031,-0.316089 0.344311,-0.479777 0.259644,-0.169334 0.609599,-0.169334 0.462844,0 0.745066,0.3048 0.282222,0.299156 0.282222,0.942622 v 1.879598 h -1.078088 v -1.642532 q 0,-0.310444 -0.09595,-0.462844 -0.09596,-0.1524 -0.310444,-0.1524 -0.214489,0 -0.338667,0.158045 -0.118533,0.158044 -0.118533,0.361244 v 1.738487 h -1.078088 v -1.642532 q 0,-0.310444 -0.09596,-0.462844 -0.09596,-0.1524 -0.310445,-0.1524 -0.220133,0 -0.338666,0.158045 -0.118533,0.158044 -0.118533,0.361244 v 1.738487 h -1.078088 z m 5.520265,0 h 1.044222 l 0.03387,0.502355 h 0.04516 q 0.09596,-0.270933 0.327377,-0.412044 0.237067,-0.146756 0.536222,-0.146756 0.32738,0 0.57573,0.1524 0.254,0.1524 0.37254,0.496711 h 0.0452 q 0.0903,-0.316089 0.34431,-0.479777 0.25965,-0.169334 0.6096,-0.169334 0.46285,0 0.74507,0.3048 0.28222,0.299156 0.28222,0.942622 v 1.879598 h -1.07809 v -1.642532 q 0,-0.310444 -0.096,-0.462844 -0.096,-0.1524 -0.31045,-0.1524 -0.21449,0 -0.33866,0.158045 -0.11854,0.158044 -0.11854,0.361244 v 1.738487 h -1.078085 v -1.642532 q 0,-0.310444 -0.09596,-0.462844 -0.09596,-0.1524 -0.310444,-0.1524 -0.220133,0 -0.338667,0.158045 -0.118533,0.158044 -0.118533,0.361244 v 1.738487 h -1.078088 z m 8.619063,3.12702 q -0.63218,0 -1.10631,-0.242711 -0.47414,-0.248356 -0.73378,-0.722489 -0.25965,-0.479777 -0.25965,-1.151465 0,-0.671689 0.25965,-1.145822 0.25964,-0.474133 0.73378,-0.716844 0.47413,-0.248355 1.10631,-0.248355 0.54186,0 0.97084,0.191911 0.42898,0.186267 0.68862,0.530577 0.25965,0.338667 0.3048,0.784578 h -1.15711 q -0.0677,-0.242711 -0.28787,-0.389467 -0.21448,-0.146755 -0.51928,-0.146755 -0.43463,0 -0.68298,0.276577 -0.24271,0.276578 -0.24271,0.8636 0,0.592666 0.24271,0.869243 0.24835,0.276578 0.68298,0.276578 0.29351,0 0.51928,-0.146755 0.23143,-0.1524 0.28787,-0.395111 h 1.15711 q -0.0452,0.445911 -0.31044,0.790221 -0.26529,0.344311 -0.69427,0.536222 -0.42898,0.186267 -0.95955,0.186267 z m 2.39324,-4.171242 h 1.07809 v 4.114797 h -1.07809 z m 2.72626,4.171242 q -0.54186,0 -0.8128,-0.3048 -0.27093,-0.3048 -0.27093,-0.886177 v -1.936043 h 1.07809 v 1.642532 q 0,0.310444 0.1016,0.462844 0.10724,0.1524 0.34431,0.1524 0.23707,0 0.36689,-0.158044 0.13546,-0.158045 0.13546,-0.361245 v -1.738487 h 1.07809 v 3.070575 h -1.03857 l -0.0395,-0.502355 h -0.0452 q -0.1016,0.270933 -0.34431,0.417689 -0.23707,0.141111 -0.55316,0.141111 z m 4.6228,0 q -0.31045,0 -0.54751,-0.135467 -0.23707,-0.141111 -0.32174,-0.366888 h -0.0564 l -0.0395,0.44591 h -1.02729 v -4.114797 h 1.07809 v 1.490133 h 0.0452 q 0.0847,-0.225778 0.32174,-0.361245 0.23706,-0.141111 0.54751,-0.141111 0.37253,0 0.64911,0.191911 0.28222,0.186267 0.43462,0.547511 0.1524,0.3556 0.1524,0.852311 0,0.49671 -0.1524,0.857955 -0.1524,0.355599 -0.43462,0.54751 -0.27658,0.186267 -0.64911,0.186267 z m -0.42898,-0.8636 q 0.29351,0 0.42898,-0.191911 0.13546,-0.191911 0.13546,-0.536221 0,-0.728133 -0.53622,-0.728133 -0.25964,0 -0.38946,0.158044 -0.12418,0.158044 -0.12418,0.440266 v 0.259645 q 0,0.282222 0.12982,0.440266 0.12982,0.158044 0.3556,0.158044 z"
       id="text2"
       aria-label="Infocomm Club" />
  </g>
</svg>
